{"title":"Song.of.the.Sea.2014.1080p.BluRay.REMUX.AVC.DTS-HD.MA.5.1-RARBG","uid":11890712,"size":25627347893,"categoryP":"video","categoryS":"hd___movies","magnet":"?xt=urn:btih:e109ec9da0c889f84be5c6bb1f3bbfaaa7b55b6c&amp;dn=Song.of.the.Sea.2014.1080p.BluRay.REMUX.AVC.DTS-HD.MA.5.1-RARBG&amp;tr=udp%3A%2F%2Ftracker.openbittorrent.com%3A80&amp;tr=udp%3A%2F%2Fopen.demonii.com%3A1337&amp;tr=udp%3A%2F%2Ftracker.coppersurfer.tk%3A6969&amp;tr=udp%3A%2F%2Fexodus.desync.com%3A6969","seeders":5,"leechers":4,"uploader":"Danimal1q2w3","files":4,"time":1430996475,"description":"Source:\n &lt;a href=&quot;\nhttps://rarbg.to/torrent/apzq6j4&quot; rel=&quot;nofollow&quot; target=&quot;_NEW&quot;&gt;\nhttps://rarbg.to/torrent/apzq6j4&lt;/a&gt;\nVideo\nID                                       : 1\nFormat                                   : AVC\nFormat/Info                              : Advanced Video Codec\nFormat profile                           : &lt;a class=&quot;__cf_email__&quot; href=&quot;/cdn-cgi/l/email-protection&quot; data-cfemail=&quot;ffb7969897bfb3cbd1ce&quot;&gt;[email&amp;#160;protected]&lt;/a&gt;&lt;script cf-hash='f9e31' type=&quot;text/javascript&quot;&gt;\n/* &lt;![CDATA[ */!function(){try{var t=&quot;currentScript&quot;in document?document.currentScript:function(){for(var t=document.getElementsByTagName(&quot;script&quot;),e=t.length;e--;)if(t[e].getAttribute(&quot;cf-hash&quot;))return t[e]}();if(t&amp;&amp;t.previousSibling){var e,r,n,i,c=t.previousSibling,a=c.getAttribute(&quot;data-cfemail&quot;);if(a){for(e=&quot;&quot;,r=parseInt(a.substr(0,2),16),n=2;a.length-n;n+=2)i=parseInt(a.substr(n,2),16)^r,e+=String.fromCharCode(i);e=document.createTextNode(e),c.parentNode.replaceChild(e,c)}}}catch(u){}}();/* ]]&gt; */&lt;/script&gt;\nFormat settings, CABAC                   : Yes\nFormat settings, ReFrames                : 4 frames\nFormat settings, GOP                     : M=3, N=12\nCodec ID                                 : V_MPEG4/ISO/AVC\nDuration                                 : 1h 33mn\nBit rate mode                            : Variable\nMaximum bit rate                         : 35.0 Mbps\nWidth                                    : 1 920 pixels\nHeight                                   : 1 080 pixels\nDisplay aspect ratio                     : 16:9\nFrame rate mode                          : Constant\nFrame rate                               : 23.976 fps\nColor space                              : YUV\nChroma subsampling                       : 4:2:0\nBit depth                                : 8 bits\nScan type                                : Progressive\nTitle                                    : Song.of.the.Sea.2014.1080p.BluRay.REMUX.AVC.DTS-HD.MA.5.1-RARBG\nLanguage                                 : English\nDefault                                  : No\nForced                                   : No\n\nAudio #1\nID                                       : 2\nFormat                                   : DTS\nFormat/Info                              : Digital Theater Systems\nFormat profile                           : MA / Core\nMode                                     : 16\nFormat settings, Endianness              : Big\nCodec ID                                 : A_DTS\nDuration                                 : 1h 33mn\nBit rate mode                            : Variable\nBit rate                                 : Unknown / 1 509 Kbps\nChannel(s)                               : 6 channels\nChannel positions                        : Front: L C R, Side: L R, LFE\nSampling rate                            : 48.0 KHz\nBit depth                                : 24 bits\nCompression mode                         : Lossless / Lossy\nTitle                                    : Song.of.the.Sea.2014.1080p.BluRay.REMUX.AVC.DTS-HD.MA.5.1-RARBG\nLanguage                                 : English\nDefault                                  : Yes\nForced                                   : No\n\nAudio #2\nID                                       : 3\nFormat                                   : DTS\nFormat/Info                              : Digital Theater Systems\nMode                                     : 16\nFormat settings, Endianness              : Big\nCodec ID                                 : A_DTS\nDuration                                 : 1h 33mn\nBit rate mode                            : Constant\nBit rate                                 : 1 509 Kbps\nChannel(s)                               : 6 channels\nChannel positions                        : Front: L C R, Side: L R, LFE\nSampling rate                            : 48.0 KHz\nBit depth                                : 24 bits\nCompression mode                         : Lossy\nStream size                              : 1 015 MiB (4%)\nTitle                                    : Song.of.the.Sea.2014.1080p.BluRay.REMUX.AVC.DTS-HD.MA.5.1-RARBG\nLanguage                                 : English\nDefault                                  : No\nForced                                   : No\n\nAudio #3\nID                                       : 4\nFormat                                   : AC-3\nFormat/Info                              : Audio Coding 3\nMode extension                           : CM (complete main)\nFormat settings, Endianness              : Big\nCodec ID                                 : A_AC3\nDuration                                 : 1h 33mn\nBit rate mode                            : Constant\nBit rate                                 : 192 Kbps\nChannel(s)                               : 2 channels\nChannel positions                        : Front: L R\nSampling rate                            : 48.0 KHz\nBit depth                                : 16 bits\nCompression mode                         : Lossy\nStream size                              : 129 MiB (1%)\nTitle                                    : Song.of.the.Sea.2014.1080p.BluRay.REMUX.AVC.DTS-HD.MA.5.1-RARBG\nLanguage                                 : English\nDefault                                  : No\nForced                                   : No\n\nText #1\nID                                       : 5\nFormat                                   : PGS\nMuxing mode                              : zlib\nCodec ID                                 : S_HDMV/PGS\nCodec ID/Info                            : The same subtitle format used on BDs/HD-DVDs\nLanguage                                 : English\nDefault                                  : No\nForced                                   : No\n\nText #2\nID                                       : 6\nFormat                                   : PGS\nMuxing mode                              : zlib\nCodec ID                                 : S_HDMV/PGS\nCodec ID/Info                            : The same subtitle format used on BDs/HD-DVDs\nLanguage                                 : French\nDefault                                  : No\nForced                                   : No\n\nMenu\n00:00:00.000                             : en:Chapter 01\n00:04:26.057                             : en:Chapter 02\n00:09:28.943                             : en:Chapter 03\n00:13:23.761                             : en:Chapter 04\n00:18:49.586                             : en:Chapter 05\n00:23:29.741                             : en:Chapter 06\n00:26:30.338                             : en:Chapter 07\n00:31:07.156                             : en:Chapter 08\n00:35:10.399                             : en:Chapter 09\n00:39:53.307                             : en:Chapter 10\n00:44:19.114                             : en:Chapter 11\n00:48:53.055                             : en:Chapter 12\n00:52:21.346                             : en:Chapter 13\n00:56:24.672                             : en:Chapter 14\n00:59:58.094                             : en:Chapter 15\n01:04:53.222                             : en:Chapter 16\n01:08:52.461                             : en:Chapter 17\n01:12:59.708                             : en:Chapter 18\n01:17:48.288                             : en:Chapter 19\n01:26:46.993                             : en:Chapter 20","torrent":{"xt":"urn:btih:e109ec9da0c889f84be5c6bb1f3bbfaaa7b55b6c","amp;dn":"Song.of.the.Sea.2014.1080p.BluRay.REMUX.AVC.DTS-HD.MA.5.1-RARBG","amp;tr":["udp%3A%2F%2Ftracker.openbittorrent.com%3A80","udp%3A%2F%2Fopen.demonii.com%3A1337","udp%3A%2F%2Ftracker.coppersurfer.tk%3A6969","udp%3A%2F%2Fexodus.desync.com%3A6969"],"infoHash":"e109ec9da0c889f84be5c6bb1f3bbfaaa7b55b6c","infoHashBuffer":{"type":"Buffer","data":[225,9,236,157,160,200,137,248,75,229,198,187,31,59,191,170,167,181,91,108]},"announce":[],"urlList":[]}}